<?xml version="1.0" encoding="utf-8"?>
<!-- Generator: Adobe Illustrator 26.0.1, SVG Export Plug-In . SVG Version: 6.00 Build 0)  -->
<svg version="1.1" xmlns="http://www.w3.org/2000/svg" xmlns:xlink="http://www.w3.org/1999/xlink" x="0px" y="0px"
	 viewBox="0 0 1080 1080" style="enable-background:new 0 0 1080 1080;" xml:space="preserve">
<style type="text/css">
	.st0{fill:#358580;}
</style>
<g id="Hat">
</g>
<g id="Text">
	<g>
		<path class="st0" d="M1054.7,32c-23,11.9-158.6,79.4-292.5,339.4c0,0-43.2,94.8-68.8,129.9c-21.9-51.7-87.1-152.9-248.6-88.3
			c0,0-140.7,60.5-236.8,252.7l-23.6,46.9c-27.1,7.2-55,13.9-80.7,18.6c-30.2,4.1-55.1,5.7-72.4,6.3c-0.7,0-21.2-0.8-27.6,0.2
			c-6.4,0.9,15.1,33.3,55.6,45.9c0,0,0.1,0,0.1,0c12.5,5.7,26.7,10.1,43.1,13.1c17,3.9,36.8,5.5,74.2,4.2c0.7,0,1.3,0,2-0.1
			c0.5,0,0.9,0,1.4,0c0.1,0,0.2,0,0.4,0c42.7-1.7,95.2-8.5,160.7-20.8C555.2,739.8,670.8,760.6,698,768s31.8-7.4,31.8-7.4
			s96.5-162.9,92.5-171.4c-4-8.5-12.5-9.1-12.5-9.1c-168-26.1-275-13.6-456.6,75.7c-10,4.9-19.9,9.5-29.8,13.8c-3,1-27,9.4-60.7,20
			c1.6-3,6.9-7.4,18.6-14.1c40.9-23.5,174.8-110.5,267.1-131.7c92.3-21.2,154.4-15.1,154.4-15.1s15.9-34,28-53.7
			c12.1-19.7,29.1-47.7,51.8-61.3c22.7-13.6,66.6-33.7,82.1-52.6c15.5-18.9,34-38.2,45-116.5c0,0,8.6-67.9,46.4-110.3
			c37.9-42.4,81.4-87,116.4-107.4l9.9-5.1C1082.5,21.8,1077.7,20.1,1054.7,32z"/>
		<g>
			<g>
				<path class="st0" d="M844.1,949.7c-6.8-0.7-11.5-1.1-14.2-1.1c-7.6,0-12.8,1.3-15.8,3.8c-3,2.6-4.5,7-4.5,13.5v46.2h-33.1v-95.9
					h31.6v17.1h0.7c1.6-2.5,3.3-5,5.2-7.7c6.1-8,13.7-12,22.9-12c2.5,0,4.9,0.1,7.2,0.4V949.7z"/>
				<g>
					<path class="st0" d="M557.8,881.4c0,4.1-1.6,7.6-4.7,10.6c-3.1,3-7,4.4-11.6,4.4c-4.5,0-8.3-1.5-11.5-4.4
						c-3.2-3-4.8-6.5-4.8-10.6c0-4.2,1.6-7.8,4.8-10.7c3.2-2.9,7-4.3,11.5-4.3c4.6,0,8.4,1.5,11.6,4.3
						C556.2,873.6,557.8,877.2,557.8,881.4z"/>
					<rect x="523.4" y="910.9" class="st0" width="36.2" height="101.2"/>
				</g>
				<path class="st0" d="M755.1,968.9c9.1-4.5,8.3-28.1,8.3-28.1s0.8-8.9-7.6-19.4c-8.3-10.6-40.1-14.3-62-7.2
					c-21.9,7.2-19.8,38.1-19.8,50.3c0,12.2-0.6,34.6,21.3,43.7c21.9,9.1,65.1,0,65.1,0v-21.9c-32,6.5-45,2.5-50-3
					c-4.8-5.3-2.3-12-2.3-12S746,973.4,755.1,968.9z M713.5,934.9c6.1-5.3,17.4-0.7,18.5,3.4c1.1,4.2,0,16.2,0,16.2h-23.1
					C708.9,943.2,707.4,940.2,713.5,934.9z"/>
				<path class="st0" d="M470.9,912.8c-15.5,2.9-20.5,11.1-20.5,11.1l-3.9-8.7h-28.2V1051v7v5l32.2-11.3v-42.4
					c4.7,3.6,12.2,7.2,23.1,6c2.9-0.3,5.5-1.2,7.8-2.4c6.2-2.5,11.6-6.4,16.4-11.8c8.9-10.1,13.4-23.2,13.4-39.2
					C511.1,917,486.3,909.9,470.9,912.8z M450.4,983.6v-38.8c4.8-3.4,13.4-8.9,18.1-7.3c0.7,0.3,1.3,0.8,1.9,1.2
					c5.3,4.8,6.7,8,6,24.1c-0.7,16.2,0.3,20.5-6.6,26c-1.2,0.7-2.4,1.2-3.8,1.6C461.3,991,454.9,987.4,450.4,983.6z"/>
				<path class="st0" d="M626.3,912.8c-15.5,2.9-20.5,11.1-20.5,11.1l-3.9-8.7h-28.2V1051v7v5l32.2-11.3v-42.4
					c4.7,3.6,12.2,7.2,23.1,6c2.9-0.3,5.5-1.2,7.8-2.4c6.2-2.5,11.6-6.4,16.4-11.8c8.9-10.1,13.4-23.2,13.4-39.2
					C666.6,917,641.8,909.9,626.3,912.8z M605.9,983.6v-38.8c4.8-3.4,13.4-8.9,18.1-7.3c0.7,0.3,1.3,0.8,1.9,1.2
					c5.3,4.8,6.7,8,6,24.1c-0.7,16.2,0.3,20.5-6.6,26c-1.2,0.7-2.4,1.2-3.8,1.6C616.7,991,610.3,987.4,605.9,983.6z"/>
			</g>
			<g>
				<path class="st0" d="M64.6,912.8c-15.5,2.9-20.5,11.1-20.5,11.1l-3.9-8.7H11.9V1051v7v5l32.2-11.3v-42.4
					c4.7,3.6,12.2,7.2,23.1,6c2.9-0.3,5.5-1.2,7.8-2.4c6.2-2.5,11.6-6.4,16.4-11.8c8.9-10.1,13.4-23.2,13.4-39.2
					C104.8,917,80,909.9,64.6,912.8z M44.1,983.6v-38.8c4.8-3.4,13.4-8.9,18.1-7.3c0.7,0.3,1.3,0.8,1.9,1.2c5.3,4.8,6.7,8,6,24.1
					c-0.7,16.2,0.3,20.5-6.6,26c-1.2,0.7-2.4,1.2-3.8,1.6C55,991,48.5,987.4,44.1,983.6z"/>
				<path class="st0" d="M242,968.9c9.1-4.5,8.3-28.1,8.3-28.1s0.8-8.9-7.6-19.4c-8.3-10.6-40.1-14.3-62-7.2
					c-21.9,7.2-19.8,38.1-19.8,50.3c0,12.2-0.6,34.6,21.3,43.7c21.9,9.1,65.1,0,65.1,0v-21.9c-32,6.5-45,2.5-50-3
					c-4.8-5.3-2.3-12-2.3-12S232.9,973.4,242,968.9z M200.3,934.9c6.1-5.3,17.4-0.7,18.5,3.4c1.1,4.2,0,16.2,0,16.2h-23.1
					C195.8,943.2,194.3,940.2,200.3,934.9z"/>
				<path class="st0" d="M323.4,864.1l-0.3,0.1v45c-4.9-3.8-12.7-7.6-23.9-6.4c-3,0.3-5.7,1.3-8.1,2.5c-6.4,2.7-12,6.8-16.9,12.5
					c-9.2,10.8-13.9,24.6-13.9,41.6c0,47.6,25.6,55.2,41.6,52.1c16-3.1,21.2-11.7,21.2-11.7l4.1,9.2h29.2V865v-0.9H323.4z
					 M323.1,977.6c-4.9,3.6-13.9,9.4-18.8,7.7c-0.7-0.4-1.3-0.9-2-1.3c-5.5-5.1-7-8.5-6.2-25.6c0.8-17.2-0.3-21.7,6.8-27.6
					c1.2-0.7,2.5-1.3,3.9-1.7c5-0.6,11.7,3.3,16.3,7.3V977.6z"/>
				<g>
					<rect x="115" y="910.9" class="st0" width="36.2" height="101.2"/>
					<path class="st0" d="M149.4,881.4c0,4.1-1.6,7.6-4.7,10.6c-3.1,3-7,4.4-11.6,4.4c-4.5,0-8.3-1.5-11.5-4.4
						c-3.2-3-4.8-6.5-4.8-10.6c0-4.2,1.6-7.8,4.8-10.7c3.2-2.9,7-4.3,11.5-4.3c4.6,0,8.4,1.5,11.6,4.3
						C147.8,873.6,149.4,877.2,149.4,881.4z"/>
				</g>
			</g>
		</g>
	</g>
</g>
</svg>
