<?xml version="1.0"?><svg fill="#000000" xmlns="http://www.w3.org/2000/svg"  viewBox="0 0 50 50" width="50px" height="50px">    <path d="M44.914,4.05H15.663c-6.421,0-11.646,5.225-11.646,11.646v29.285c0,0.156,0.037,0.31,0.107,0.45L4.159,45.5 c0.17,0.337,0.515,0.5,0.893,0.5h29.285c6.421,0,11.646-5.175,11.646-11.596V5.05C45.983,4.498,45.466,4.05,44.914,4.05z M28.178,20.172c-1.966,4.55-2.457,10.016-6.028,13.452c-2.457,2.357-5.897,3.24-8.91,4.779C11.274,39.418,7.605,41.84,6.033,44 L6,43.935l2.719-5.106c4.291-6.873,7.665-11.619,13.66-18.525C27.817,13.986,36.04,8.455,43.935,6H44 C44,6,31.879,11.662,28.178,20.172z"/></svg>